<svg width="26" height="17" viewBox="0 0 26 17" fill="none" xmlns="http://www.w3.org/2000/svg">
<path fill-rule="evenodd" clip-rule="evenodd" d="M0.830329 0C1.29017 0 1.66065 0.3087 1.66065 0.689878V4.59561H21.8516C22.9546 4.5981 24.0112 4.96231 24.7891 5.60815C25.567 6.25399 26.0026 7.12859 26 8.03963V16.3101C26.0004 16.4004 25.9793 16.4898 25.9379 16.5733C25.8965 16.6568 25.8356 16.7328 25.7586 16.7968C25.6817 16.8609 25.5902 16.9118 25.4894 16.9467C25.3886 16.9815 25.2805 16.9996 25.1713 17C25.0619 16.9998 24.9536 16.9818 24.8527 16.947C24.7517 16.9123 24.66 16.8614 24.5829 16.7973C24.5058 16.7332 24.4447 16.6572 24.4032 16.5736C24.3617 16.49 24.3405 16.4005 24.341 16.3101V13.3238H1.65903V16.3101C1.65945 16.4004 1.63836 16.4898 1.59694 16.5733C1.55553 16.6568 1.49461 16.7328 1.41765 16.7968C1.3407 16.8609 1.24923 16.9118 1.14846 16.9467C1.04768 16.9815 0.939582 16.9996 0.830329 17C0.720939 16.9998 0.612665 16.9818 0.511703 16.947C0.410742 16.9123 0.319076 16.8614 0.241952 16.7973C0.164829 16.7332 0.103761 16.6572 0.0622447 16.5736C0.0207285 16.49 -0.000421159 16.4005 6.35399e-06 16.3101V0.688536C0.00163125 0.3087 0.373733 0 0.830329 0ZM1.66065 11.9454H24.3426V8.04232C24.3426 6.90147 23.2279 5.97537 21.8533 5.97537H1.65903V11.948L1.66065 11.9454Z" fill="black"/>
</svg>
