<svg width="22" height="23" viewBox="0 0 22 23" fill="none" xmlns="http://www.w3.org/2000/svg">
<path fill-rule="evenodd" clip-rule="evenodd" d="M0 6.38641C0 1.91607 3.7408 0 7.24186 0H10.6721C12.9232 0 14.7596 1.83557 14.7596 4.11531V4.74777C18.8307 5.1258 22 8.16449 22 11.8572V12.4695H5.80344V11.8586C5.80344 8.06818 9.14317 4.96625 13.368 4.72333V4.11674C13.368 2.63046 12.1678 1.41441 10.6721 1.41441H7.24186C4.4977 1.41441 1.39168 2.3746 1.39168 6.38785V22.2942C1.39168 22.691 1.07505 23 0.696594 23C0.319649 23 0 22.691 0 22.2942V6.38641ZM20.4817 11.0149C20.1349 8.03081 17.3726 6.16218 13.9017 6.16218C10.4293 6.16218 7.66856 8.03081 7.32177 11.0149H20.4817ZM12.4512 14.2304C12.8131 14.2304 13.1041 14.5092 13.1041 14.8528V16.7688C13.1041 16.9341 13.0352 17.0926 12.9127 17.2094C12.7901 17.3263 12.6238 17.3919 12.4505 17.3919C12.2771 17.3919 12.1109 17.3263 11.9883 17.2094C11.8657 17.0926 11.7969 16.9341 11.7969 16.7688V14.8528C11.7969 14.5078 12.0894 14.2304 12.4512 14.2304ZM16.471 14.2304C16.8328 14.2304 17.1254 14.5092 17.1254 14.8528V16.7688C17.1254 16.9341 17.0565 17.0926 16.9339 17.2094C16.8113 17.3263 16.6451 17.3919 16.4717 17.3919C16.2984 17.3919 16.1321 17.3263 16.0095 17.2094C15.887 17.0926 15.8181 16.9341 15.8181 16.7688V14.8528C15.8181 14.5078 16.1106 14.2304 16.471 14.2304ZM12.4512 19.7529C12.8131 19.7529 13.1041 20.0317 13.1041 20.3753V22.2928C13.1041 22.4581 13.0352 22.6165 12.9127 22.7334C12.7901 22.8503 12.6238 22.9159 12.4505 22.9159C12.2771 22.9159 12.1109 22.8503 11.9883 22.7334C11.8657 22.6165 11.7969 22.4581 11.7969 22.2928V20.3753C11.7969 20.0303 12.0894 19.7529 12.4512 19.7529ZM16.471 19.7529C16.8328 19.7529 17.1254 20.0317 17.1254 20.3753V22.2928C17.1254 22.4581 17.0565 22.6165 16.9339 22.7334C16.8113 22.8503 16.6451 22.9159 16.4717 22.9159C16.2984 22.9159 16.1321 22.8503 16.0095 22.7334C15.887 22.6165 15.8181 22.4581 15.8181 22.2928V20.3753C15.8181 20.0303 16.1106 19.7529 16.471 19.7529Z" fill="black"/>
</svg>
