<svg width="26" height="26" viewBox="0 0 26 26" fill="none" xmlns="http://www.w3.org/2000/svg">
<g clip-path="url(#clip0_92_4)">
<path fill-rule="evenodd" clip-rule="evenodd" d="M13.9704 0.377094L25.7184 10.7485C26.0499 11.041 26.0954 11.5659 25.8192 11.9185C25.7568 12.0014 25.6778 12.0705 25.5873 12.1213C25.4969 12.172 25.3968 12.2035 25.2935 12.2136C25.1903 12.2236 25.086 12.2122 24.9874 12.1798C24.8888 12.1475 24.798 12.0951 24.7208 12.0258L13.0003 1.6788L1.27981 12.0258C1.20255 12.0951 1.11174 12.1475 1.01313 12.1798C0.914535 12.2122 0.810296 12.2236 0.707025 12.2136C0.603754 12.2035 0.503704 12.172 0.413217 12.1213C0.32273 12.0705 0.24378 12.0014 0.181371 11.9185C0.0481373 11.7465 -0.0154717 11.5306 0.00319505 11.3138C0.0218618 11.097 0.121437 10.8952 0.282116 10.7485L12.0302 0.377094C12.2951 0.134537 12.6412 0 13.0003 0C13.3594 0 13.7055 0.134537 13.9704 0.377094ZM3.97716 13.2771C4.40776 13.2771 4.75712 13.6493 4.75712 14.1059V24.3424H21.055V14.3822C21.055 13.9239 21.4059 13.5534 21.8349 13.5534C22.2671 13.5534 22.6165 13.9239 22.6165 14.3822V24.3765C22.6165 24.8039 22.4589 25.2167 22.1745 25.5222C22.0375 25.6718 21.8711 25.7914 21.6857 25.8736C21.5004 25.9558 21.3 25.9989 21.0972 26H4.71649C3.86829 26 3.19558 25.2655 3.19558 24.3749V14.1059C3.19558 13.6493 3.54656 13.2771 3.97716 13.2771Z" fill="black"/>
</g>
<defs>
<clipPath id="clip0_92_4">
<rect width="26" height="26" fill="white"/>
</clipPath>
</defs>
</svg>
